<?xml version="1.0" standalone="no"?><!DOCTYPE svg PUBLIC "-//W3C//DTD SVG 1.1//EN" "http://www.w3.org/Graphics/SVG/1.1/DTD/svg11.dtd"><svg t="1699459902951" class="icon" viewBox="0 0 1024 1024" version="1.1" xmlns="http://www.w3.org/2000/svg" p-id="4359" xmlns:xlink="http://www.w3.org/1999/xlink" width="16" height="16"><path d="M416.6144 588.7488c-121.088-39.7824-208.4864-153.1392-208.4864-286.8224C208.128 135.168 344.1664 0 512 0c167.8336 0 303.872 135.168 303.872 301.9264 0 133.6832-87.3984 247.0912-208.5376 286.8224a409.2928 409.2928 0 0 1 200.5504 114.432A404.2752 404.2752 0 0 1 921.6 984.576c0 21.76-17.7664 39.3728-39.6288 39.3728a39.5264 39.5264 0 0 1-39.6288-39.424 325.7856 325.7856 0 0 0-91.7504-226.9184A330.24 330.24 0 0 0 512 656.384c-182.4256 0-330.3424 146.944-330.3424 328.192 0 21.76-17.7152 39.3728-39.6288 39.3728A39.5264 39.5264 0 0 1 102.4 984.576c0-192.1024 133.9904-353.1264 314.2144-395.8272zM512 525.1072c124.0576 0 224.6144-99.8912 224.6144-223.1808 0-123.2384-100.5568-223.1808-224.6144-223.1808-124.0576 0-224.6144 99.9424-224.6144 223.232 0 123.2384 100.5568 223.1296 224.6144 223.1296z" fill="#666666" p-id="4360"></path></svg>